<?xml version="1.0" standalone="no"?>
<svg xmlns:xlink="http://www.w3.org/1999/xlink" id="wave" style="transform:rotate(0deg); transition: 0.3s" viewBox="0 0 1440 190" version="1.1" xmlns="http://www.w3.org/2000/svg"><defs><linearGradient id="sw-gradient-0" x1="0" x2="0" y1="1" y2="0"><stop stop-color="rgba(243, 106, 62, 1)" offset="0%"/><stop stop-color="rgba(255, 179, 11, 1)" offset="100%"/></linearGradient></defs><path style="transform:translate(0, 0px); opacity:1" fill="url(#sw-gradient-0)" d="M0,95L48,79.2C96,63,192,32,288,34.8C384,38,480,76,576,98.2C672,120,768,127,864,117.2C960,108,1056,82,1152,66.5C1248,51,1344,44,1440,34.8C1536,25,1632,13,1728,31.7C1824,51,1920,101,2016,123.5C2112,146,2208,139,2304,133C2400,127,2496,120,2592,107.7C2688,95,2784,76,2880,60.2C2976,44,3072,32,3168,22.2C3264,13,3360,6,3456,12.7C3552,19,3648,38,3744,53.8C3840,70,3936,82,4032,95C4128,108,4224,120,4320,114C4416,108,4512,82,4608,79.2C4704,76,4800,95,4896,91.8C4992,89,5088,63,5184,57C5280,51,5376,63,5472,85.5C5568,108,5664,139,5760,148.8C5856,158,5952,146,6048,142.5C6144,139,6240,146,6336,142.5C6432,139,6528,127,6624,101.3C6720,76,6816,38,6864,19L6912,0L6912,190L6864,190C6816,190,6720,190,6624,190C6528,190,6432,190,6336,190C6240,190,6144,190,6048,190C5952,190,5856,190,5760,190C5664,190,5568,190,5472,190C5376,190,5280,190,5184,190C5088,190,4992,190,4896,190C4800,190,4704,190,4608,190C4512,190,4416,190,4320,190C4224,190,4128,190,4032,190C3936,190,3840,190,3744,190C3648,190,3552,190,3456,190C3360,190,3264,190,3168,190C3072,190,2976,190,2880,190C2784,190,2688,190,2592,190C2496,190,2400,190,2304,190C2208,190,2112,190,2016,190C1920,190,1824,190,1728,190C1632,190,1536,190,1440,190C1344,190,1248,190,1152,190C1056,190,960,190,864,190C768,190,672,190,576,190C480,190,384,190,288,190C192,190,96,190,48,190L0,190Z"/></svg>