<?xml version="1.0" standalone="no"?>
<svg xmlns:xlink="http://www.w3.org/1999/xlink" id="wave" style="transform:rotate(0deg); transition: 0.3s" viewBox="0 0 1440 190" version="1.1" xmlns="http://www.w3.org/2000/svg"><defs><linearGradient id="sw-gradient-0" x1="0" x2="0" y1="1" y2="0"><stop stop-color="rgba(243, 106, 62, 1)" offset="0%"/><stop stop-color="rgba(255, 179, 11, 1)" offset="100%"/></linearGradient></defs><path style="transform:translate(0, 0px); opacity:1" fill="url(#sw-gradient-0)" d="M0,57L48,47.5C96,38,192,19,288,12.7C384,6,480,13,576,25.3C672,38,768,57,864,66.5C960,76,1056,76,1152,72.8C1248,70,1344,63,1440,79.2C1536,95,1632,133,1728,126.7C1824,120,1920,70,2016,44.3C2112,19,2208,19,2304,31.7C2400,44,2496,70,2592,72.8C2688,76,2784,57,2880,44.3C2976,32,3072,25,3168,25.3C3264,25,3360,32,3456,47.5C3552,63,3648,89,3744,85.5C3840,82,3936,51,4032,57C4128,63,4224,108,4320,110.8C4416,114,4512,76,4608,50.7C4704,25,4800,13,4896,34.8C4992,57,5088,114,5184,142.5C5280,171,5376,171,5472,158.3C5568,146,5664,120,5760,91.8C5856,63,5952,32,6048,15.8C6144,0,6240,0,6336,12.7C6432,25,6528,51,6624,63.3C6720,76,6816,76,6864,76L6912,76L6912,190L6864,190C6816,190,6720,190,6624,190C6528,190,6432,190,6336,190C6240,190,6144,190,6048,190C5952,190,5856,190,5760,190C5664,190,5568,190,5472,190C5376,190,5280,190,5184,190C5088,190,4992,190,4896,190C4800,190,4704,190,4608,190C4512,190,4416,190,4320,190C4224,190,4128,190,4032,190C3936,190,3840,190,3744,190C3648,190,3552,190,3456,190C3360,190,3264,190,3168,190C3072,190,2976,190,2880,190C2784,190,2688,190,2592,190C2496,190,2400,190,2304,190C2208,190,2112,190,2016,190C1920,190,1824,190,1728,190C1632,190,1536,190,1440,190C1344,190,1248,190,1152,190C1056,190,960,190,864,190C768,190,672,190,576,190C480,190,384,190,288,190C192,190,96,190,48,190L0,190Z"/></svg>