<?xml version="1.0" standalone="no"?>
<svg xmlns:xlink="http://www.w3.org/1999/xlink" id="wave" style="transform:rotate(0deg); transition: 0.3s" viewBox="0 0 1440 490" version="1.1" xmlns="http://www.w3.org/2000/svg"><defs><linearGradient id="sw-gradient-0" x1="0" x2="0" y1="1" y2="0"><stop stop-color="rgba(39, 158, 255, 1)" offset="0%"/><stop stop-color="rgba(64, 248, 255, 1)" offset="100%"/></linearGradient></defs><path style="transform:translate(0, 0px); opacity:1" fill="url(#sw-gradient-0)" d="M0,49L120,106.2C240,163,480,278,720,269.5C960,261,1200,131,1440,89.8C1680,49,1920,98,2160,130.7C2400,163,2640,180,2880,155.2C3120,131,3360,65,3600,98C3840,131,4080,261,4320,318.5C4560,376,4800,359,5040,318.5C5280,278,5520,212,5760,163.3C6000,114,6240,82,6480,122.5C6720,163,6960,278,7200,294C7440,310,7680,229,7920,196C8160,163,8400,180,8640,228.7C8880,278,9120,359,9360,367.5C9600,376,9840,310,10080,294C10320,278,10560,310,10800,302.2C11040,294,11280,245,11520,187.8C11760,131,12000,65,12240,73.5C12480,82,12720,163,12960,228.7C13200,294,13440,343,13680,326.7C13920,310,14160,229,14400,179.7C14640,131,14880,114,15120,122.5C15360,131,15600,163,15840,163.3C16080,163,16320,131,16560,171.5C16800,212,17040,327,17160,383.8L17280,441L17280,490L17160,490C17040,490,16800,490,16560,490C16320,490,16080,490,15840,490C15600,490,15360,490,15120,490C14880,490,14640,490,14400,490C14160,490,13920,490,13680,490C13440,490,13200,490,12960,490C12720,490,12480,490,12240,490C12000,490,11760,490,11520,490C11280,490,11040,490,10800,490C10560,490,10320,490,10080,490C9840,490,9600,490,9360,490C9120,490,8880,490,8640,490C8400,490,8160,490,7920,490C7680,490,7440,490,7200,490C6960,490,6720,490,6480,490C6240,490,6000,490,5760,490C5520,490,5280,490,5040,490C4800,490,4560,490,4320,490C4080,490,3840,490,3600,490C3360,490,3120,490,2880,490C2640,490,2400,490,2160,490C1920,490,1680,490,1440,490C1200,490,960,490,720,490C480,490,240,490,120,490L0,490Z"/></svg>