<?xml version="1.0" standalone="no"?>
<svg xmlns:xlink="http://www.w3.org/1999/xlink" id="wave" style="transform:rotate(0deg); transition: 0.3s" viewBox="0 0 1440 160" version="1.1" xmlns="http://www.w3.org/2000/svg"><defs><linearGradient id="sw-gradient-0" x1="0" x2="0" y1="1" y2="0"><stop stop-color="rgba(243, 106, 62, 1)" offset="0%"/><stop stop-color="rgba(255, 179, 11, 1)" offset="100%"/></linearGradient></defs><path style="transform:translate(0, 0px); opacity:1" fill="url(#sw-gradient-0)" d="M0,144L48,144C96,144,192,144,288,120C384,96,480,48,576,29.3C672,11,768,21,864,42.7C960,64,1056,96,1152,109.3C1248,123,1344,117,1440,109.3C1536,101,1632,91,1728,82.7C1824,75,1920,69,2016,56C2112,43,2208,21,2304,26.7C2400,32,2496,64,2592,77.3C2688,91,2784,85,2880,88C2976,91,3072,101,3168,106.7C3264,112,3360,112,3456,117.3C3552,123,3648,133,3744,128C3840,123,3936,101,4032,90.7C4128,80,4224,80,4320,77.3C4416,75,4512,69,4608,80C4704,91,4800,117,4896,114.7C4992,112,5088,80,5184,66.7C5280,53,5376,59,5472,69.3C5568,80,5664,96,5760,85.3C5856,75,5952,37,6048,29.3C6144,21,6240,43,6336,45.3C6432,48,6528,32,6624,37.3C6720,43,6816,69,6864,82.7L6912,96L6912,160L6864,160C6816,160,6720,160,6624,160C6528,160,6432,160,6336,160C6240,160,6144,160,6048,160C5952,160,5856,160,5760,160C5664,160,5568,160,5472,160C5376,160,5280,160,5184,160C5088,160,4992,160,4896,160C4800,160,4704,160,4608,160C4512,160,4416,160,4320,160C4224,160,4128,160,4032,160C3936,160,3840,160,3744,160C3648,160,3552,160,3456,160C3360,160,3264,160,3168,160C3072,160,2976,160,2880,160C2784,160,2688,160,2592,160C2496,160,2400,160,2304,160C2208,160,2112,160,2016,160C1920,160,1824,160,1728,160C1632,160,1536,160,1440,160C1344,160,1248,160,1152,160C1056,160,960,160,864,160C768,160,672,160,576,160C480,160,384,160,288,160C192,160,96,160,48,160L0,160Z"/></svg>